# xmcd
#
# Track frame offsets:
#	150
#	11310
#	23025
#	33108
#	45608
#	55377
#	67712
#	84650
#	96813
#	106809
#	120216
#	131248
#	142827
#	162839
#	173916
#	197826
#	211714
#	230721
#	248463
#	269516
#	281634
#	295458
#	307746
#	319209
#	332422
#
# Disc length: 4614 seconds
#
# Revision: 1
# Processed by: cddbd v1.5.2PL0 Copyright (c) Steve Scherf et al.
# Submitted via: audiograbber 1.83.01
#
DISCID=4e120419
DTITLE=John Lee Hooker - Boom Boom 101 The Best Of [CD2]
DYEAR=2013
DGENRE=Blues
TTITLE0=No Shoes
TTITLE1=Solid Sender
TTITLE2=Bundle Up And Go
TTITLE3=Crawling King Snake Blues
TTITLE4=Dusty Road
TTITLE5=Whiskey And Wimmen
TTITLE6=I Believe I'll Go Back Home
TTITLE7=Everybody Rockin'
TTITLE8=Run On
TTITLE9=You're Looking Good Tonight
TTITLE10=Tennessee Blues
TTITLE11=Wheel And Deal
TTITLE12=Gonna Use My Rod
TTITLE13=I Need Some Money
TTITLE14=I'm Wanderin'
TTITLE15=I Want To Talk About You
TTITLE16=One Of These Days
TTITLE17=You're Leavin' Me, Baby
TTITLE18=That's My Story
TTITLE19=I'll Know Tonight
TTITLE20=You're Gonna Miss Me When I'm Gone
TTITLE21=I'm a Stranger
TTITLE22=Sunny Land
TTITLE23=I Like to See You Walk
TTITLE24=Take Me as I Am
EXTD=
EXTT0=
EXTT1=
EXTT2=
EXTT3=
EXTT4=
EXTT5=
EXTT6=
EXTT7=
EXTT8=
EXTT9=
EXTT10=
EXTT11=
EXTT12=
EXTT13=
EXTT14=
EXTT15=
EXTT16=
EXTT17=
EXTT18=
EXTT19=
EXTT20=
EXTT21=
EXTT22=
EXTT23=
EXTT24=
PLAYORDER=
